<?xml version="1.0" encoding="UTF-8"?>
<svg xmlns="http://www.w3.org/2000/svg" width="390" height="844" viewBox="0 0 390 844">
  <defs>
    <filter id="shadow" x="-20%" y="-20%" width="140%" height="140%">
      <feDropShadow dx="0" dy="12" stdDeviation="16" flood-color="#0b1720" flood-opacity="0.16"/>
    </filter>
  </defs>
  <rect width="390" height="844" fill="#f7f9fb"/>
  <rect x="0" y="0" width="390" height="92" fill="#0f2633"/>
  <text x="24" y="42" font-family="Inter, Arial, sans-serif" font-size="15" font-weight="800" fill="#ffffff" >9:41</text>
  <text x="24" y="78" font-family="Inter, Arial, sans-serif" font-size="21" font-weight="820" fill="#ffffff" >Upload queue</text>
  <text x="254" y="78" font-family="Inter, Arial, sans-serif" font-size="12" font-weight="720" fill="#8fd5ff" text-anchor="end">API sync</text>
  
  <text x="24" y="128" font-family="Inter, Arial, sans-serif" font-size="20" font-weight="820" fill="#17212b" >Publishing package</text>
  <text x="24" y="154" font-family="Inter, Arial, sans-serif" font-size="13" font-weight="600" fill="#65727c" >BMW 320d • 32 media files • 1 listing</text>
  <rect x="24" y="188" width="342" height="96" rx="22" fill="#ffffff" filter="url(#shadow)"/>
  <text x="52" y="228" font-family="Inter, Arial, sans-serif" font-size="15" font-weight="820" fill="#17212b" >Photos</text>
  <text x="52" y="254" font-family="Inter, Arial, sans-serif" font-size="13" font-weight="600" fill="#65727c" >24 / 24 uploaded</text>
  <rect x="220" y="222" width="104" height="10" rx="5" fill="#dfe7ec"/>
  <rect x="220" y="222" width="104" height="10" rx="5" fill="#2fbf71"/>
  <rect x="24" y="306" width="342" height="96" rx="22" fill="#ffffff" filter="url(#shadow)"/>
  <text x="52" y="346" font-family="Inter, Arial, sans-serif" font-size="15" font-weight="820" fill="#17212b" >360 interior</text>
  <text x="52" y="372" font-family="Inter, Arial, sans-serif" font-size="13" font-weight="600" fill="#65727c" >Theta panorama processing</text>
  <rect x="220" y="340" width="104" height="10" rx="5" fill="#dfe7ec"/>
  <rect x="220" y="340" width="72" height="10" rx="5" fill="#2d8cc7"/>
  <rect x="24" y="424" width="342" height="96" rx="22" fill="#ffffff" filter="url(#shadow)"/>
  <text x="52" y="464" font-family="Inter, Arial, sans-serif" font-size="15" font-weight="820" fill="#17212b" >Damage video</text>
  <text x="52" y="490" font-family="Inter, Arial, sans-serif" font-size="13" font-weight="600" fill="#65727c" >Retry after connection drop</text>
  <rect x="220" y="458" width="104" height="10" rx="5" fill="#dfe7ec"/>
  <rect x="220" y="458" width="38" height="10" rx="5" fill="#f0a33a"/>
  <rect x="24" y="572" width="342" height="70" rx="22" fill="#0f2633"/>
  <text x="52" y="613" font-family="Inter, Arial, sans-serif" font-size="15" font-weight="820" fill="#ffffff" >Network aware queue</text>
  <text x="52" y="636" font-family="Inter, Arial, sans-serif" font-size="12" font-weight="600" fill="#9fb0bd" >Background upload + retry states</text>
  <rect x="0" y="776" width="390" height="68" fill="#ffffff"/>
  <line x1="0" y1="776" x2="390" y2="776" stroke="#dfe5e9"/>
  <text x="54" y="817" font-family="Inter, Arial, sans-serif" font-size="11" font-weight="700" fill="#2d8cc7" text-anchor="middle">Capture</text>
  <text x="153" y="817" font-family="Inter, Arial, sans-serif" font-size="11" font-weight="700" fill="#8a969e" text-anchor="middle">Media</text>
  <text x="246" y="817" font-family="Inter, Arial, sans-serif" font-size="11" font-weight="700" fill="#8a969e" text-anchor="middle">360</text>
  <text x="337" y="817" font-family="Inter, Arial, sans-serif" font-size="11" font-weight="700" fill="#8a969e" text-anchor="middle">Listing</text>
  <circle cx="54" cy="792" r="8" fill="#2d8cc7"/>
  <circle cx="153" cy="792" r="8" fill="#c6cdd3"/>
  <circle cx="246" cy="792" r="8" fill="#c6cdd3"/>
  <circle cx="337" cy="792" r="8" fill="#c6cdd3"/>
</svg>